# ProBuilder 5.0.7
# https://unity3d.com/unity/features/worldbuilding/probuilder
# 6/29/2023 4:13:59 AM

mtllib ./inner_wallinner1_wall1.mtl
o inner_wallinner1_wall1

g innet_wall:inner_wallinner1_wall1
v 393.7045 0.9593964 65.01035
v 401.0013 35.23007 65.01031
v 401.0013 0.9593964 65.01031
v 393.7045 35.23007 65.01035
v 401.0013 214.1873 65.01031
v 393.7045 214.1873 65.01035
v 401.0013 0.9593964 158.3825
v 393.7045 35.23007 158.3825
v 393.7045 0.9593964 158.3825
v 401.0013 35.23007 158.3825
v 393.7045 214.1873 158.3825
v 401.0013 214.1873 158.3825
v 339.3806 33.95645 -267.6553
v 339.4385 -1.099396 -293.8782
v 339.3806 -5.684342E-14 -267.6553
v 339.4385 33.91811 -293.8783
v 401.0013 0.2323456 62.57645
v 401.0013 34.26489 62.57642
v 401.0013 34.26489 160.8164
v 401.0013 0.2323456 160.8164
v 401.0013 216.4027 160.8164
v 401.0013 216.4027 62.57645
v 402.5118 -5.684342E-14 -59.54662
v 656.1364 33.95646 -60.60289
v 656.1364 9.611249E-06 -60.60289
v 402.5118 33.95645 -59.54662
v 656.1364 217.1107 -60.60289
v 402.5118 217.1107 -59.54662
v 656.1364 272.1115 -60.60289
v 402.5118 272.1115 -59.54662
v 402.5118 -5.684342E-14 363.9191
v 402.5118 33.95645 161.5942
v 402.5118 -5.684342E-14 161.5942
v 402.5118 33.95645 363.9191
v 402.5118 217.1107 161.5942
v 402.5118 217.1107 363.9191
v 402.5118 272.1115 161.5947
v 402.5118 272.1115 363.9191
v 740.8994 -5.684342E-14 -59.54662
v 740.8994 33.95645 -29.04201
v 740.8994 -5.684342E-14 -29.04201
v 740.8994 33.95645 -59.54662
v 740.8994 217.1107 -29.04201
v 740.8994 217.1107 -59.54662
v 740.8994 272.1115 -28.89391
v 740.8994 272.1115 -59.54662
v 402.5118 -5.684342E-14 -29.04201
v 402.5118 33.95645 -29.04201
v 402.5118 -5.684342E-14 61.79861
v 402.5118 33.95645 61.79858
v 402.5118 217.1107 -29.04201
v 402.5118 272.1115 -29.81532
v 402.5118 217.1107 61.79861
v 402.5118 272.1115 61.7986
v 761.8672 33.95645 -29.04201
v 761.8672 -5.684342E-14 -29.04201
v 761.8672 217.1107 -29.04201
v 761.8672 272.1115 -29.04201
v 764.8608 1.437088 -25.95131
v 773.4389 35.13417 -25.95131
v 773.4392 1.437088 -25.95131
v 764.8608 35.13417 -25.95131
v 773.4389 214.4075 -25.95131
v 764.8608 214.4075 -25.95131
v 773.4392 1.437088 66.40558
v 764.8608 35.13416 66.40558
v 764.8608 1.437088 66.40558
v 773.4389 35.13416 66.40558
v 764.8608 191.8772 66.40558
v 773.4392 191.8772 66.40558
v 764.8608 214.4074 66.40558
v 773.4392 214.4074 66.40558
v 764.7244 34.04836 -28.80077
v 764.7244 0.1121674 -28.80077
v 764.7244 216.8997 -28.80077
v 761.8672 -5.684342E-14 69.49634
v 764.7244 0.1121674 69.2551
v 764.7244 34.04834 69.2551
v 761.8672 33.95642 69.49634
v 764.7244 193.6573 69.2551
v 761.8672 193.808 69.49634
v 764.7244 216.8996 69.2551
v 761.8672 217.1106 69.49634
v 781.2301 33.95642 69.49634
v 778.3261 0.2630005 68.93069
v 781.2302 -5.684342E-14 69.49634
v 778.326 34.17195 68.93069
v 781.2302 193.808 69.49634
v 778.3261 193.4547 68.93069
v 781.2302 217.6589 69.49634
v 778.3261 217.5216 68.93069
v 781.4923 217.9667 -28.73308
v 778.326 217.5217 -28.47639
v 781.4923 33.91811 -28.73311
v 778.326 34.172 -28.47639
v 781.4923 -1.099396 -28.73308
v 778.3261 0.2630005 -28.47639
v 656.9506 34.32367 -63.26446
v 656.9506 0.3081178 -63.26446
v 656.9506 216.2678 -63.26446
v 740.0851 0.3081055 -62.20818
v 740.0851 34.32365 -62.20818
v 740.0851 216.2678 -62.20818
v 660.3657 212.7324 -63.50928
v 660.3657 35.86388 -63.50928
v 660.3657 1.600466 -63.50928
v 736.6701 212.7324 -62.45299
v 736.6701 35.86388 -62.45299
v 736.6701 1.600449 -62.45299
v 595.0057 -5.684342E-14 363.9191
v 595.0057 33.95645 363.9191
v 740.8994 -5.684342E-14 363.9191
v 740.8994 33.95645 363.9191
v 761.8672 -5.684342E-14 363.9191
v 761.8672 33.95642 363.9191
v 595.0057 217.1107 363.9191
v 595.0057 272.1115 363.9191
v 740.8994 217.1107 363.9191
v 761.8672 217.1106 363.9191
v 740.8994 272.1115 363.9191
v 761.8672 272.1116 363.9191
v 660.3657 35.86388 -75.20216
v 660.3657 1.600466 -75.20216
v 660.3657 212.7324 -75.20216
v 736.6701 1.600449 -74.14586
v 736.6701 35.86388 -74.14586
v 736.6701 212.7324 -74.14586
v 595.0058 1.892447E-05 -464.1076
v 740.8997 33.95647 -464.1076
v 740.8997 1.892447E-05 -464.1076
v 595.0058 33.95647 -464.1076
v 491.9037 2.367422E-05 -465.0043
v 740.8997 217.1107 -464.1076
v 491.9037 33.95647 -465.0043
v 595.0058 217.1107 -464.1076
v 740.8997 272.1115 -464.1076
v 491.9037 217.1107 -465.0043
v 595.0058 272.1115 -464.1076
v 491.9037 272.1115 -465.0043
v 740.8994 33.95645 -78.02724
v 740.8994 -5.684342E-14 -78.02724
v 740.8994 217.1107 -78.02724
v 740.8994 272.1115 -78.02724
v 656.1364 9.611249E-06 -79.08353
v 491.848 33.95646 -78.91864
v 491.848 9.518117E-06 -78.91864
v 656.1364 33.95646 -79.08353
v 491.848 217.1107 -78.91864
v 656.1364 217.1107 -79.08353
v 491.848 272.1115 -78.91864
v 656.1364 272.1115 -79.08353
v 657.1522 0.3844356 -75.43246
v 657.1522 34.41459 -75.43246
v 657.1522 216.0591 -75.43246
v 739.8836 34.41458 -74.37617
v 739.8836 0.3844147 -74.37617
v 739.8836 216.0591 -74.37617

vt 1.642528 -0.09614831
vt 1.659275 -0.02932006
vt 1.659065 -0.09620392
vt 1.642742 -0.02924818
vt 1.661351 0.4122993
vt 1.644569 0.4133928
vt 1.674358 1.116598
vt 1.657087 1.049893
vt 1.65782 1.116781
vt 1.673623 1.049703
vt 1.651707 0.6077674
vt 1.668487 0.6072587
vt 1.952438 1.243757
vt 1.895774 1.311553
vt 1.953658 1.308367
vt 1.894516 1.244924
vt 1.664578 -0.09763986
vt 1.664782 -0.03121537
vt 1.679155 1.051518
vt 1.679889 1.117956
vt 1.672693 0.6096556
vt 1.665429 0.4096895
vt 1.971909 -0.05836552
vt 2.466434 0.004652441
vt 2.466434 -0.05836552
vt 1.971909 0.004652441
vt 2.466434 0.4529806
vt 1.971909 0.4529806
vt 2.466434 0.6299679
vt 1.971909 0.6299679
vt 2.068825 1.475463
vt 2.144363 0.9624425
vt 2.068825 0.9624425
vt 2.144363 1.475463
vt 2.577906 0.9624425
vt 2.577906 1.475463
vt 2.735359 0.9624425
vt 2.735359 1.475463
vt 2.509072 -0.7877511
vt 2.576633 -0.7302712
vt 2.576633 -0.7877511
vt 2.509072 -0.7302712
vt 2.576633 -0.297213
vt 2.509072 -0.297213
vt 2.576633 -0.1501754
vt 2.509072 -0.1501754
vt 1.907802 -0.05836552
vt 1.907802 0.004652441
vt 1.714775 -0.05836552
vt 1.714775 0.004652441
vt 1.907802 0.4529806
vt 1.907802 0.6299679
vt 1.714775 0.4529806
vt 1.714775 0.6299679
vt 1.519551 0.6299679
vt 1.519551 0.4529806
vt 2.62402 -0.7302712
vt 2.62402 -0.7877511
vt 2.624021 -0.297213
vt 2.62402 -0.1501754
vt 0.4884229 1.915114
vt 0.412114 1.933627
vt 0.4884229 1.933627
vt 0.412114 1.915114
vt -0.01922077 1.933627
vt -0.01922077 1.915114
vt 2.120503 -0.297213
vt 2.120503 -0.1501768
vt -0.6758754 1.933626
vt -0.6070843 1.915113
vt -0.6758754 1.915113
vt -0.6070843 1.933626
vt -0.2885987 1.915114
vt -0.2885987 1.933627
vt -0.219215 1.915114
vt -0.219215 1.933627
vt 0.412114 1.903814
vt 0.412114 1.909931
vt 0.4884229 1.909931
vt 0.4884229 1.903814
vt -0.01922077 1.909931
vt -0.01922077 1.903814
vt -0.6758754 1.903813
vt -0.6758754 1.90993
vt -0.6070843 1.90993
vt -0.6070843 1.903813
vt -0.2885987 1.909931
vt -0.2885987 1.903814
vt -0.219215 1.909931
vt -0.219215 1.903814
vt -0.6070843 1.952399
vt -0.6758754 1.945638
vt -0.6758754 1.952399
vt -0.6070843 1.945638
vt -0.2885987 1.9524
vt -0.2885987 1.945639
vt -0.219215 1.9524
vt -0.219215 1.945639
vt -0.01922077 1.9524
vt -0.01922077 1.945639
vt 0.412114 1.9524
vt 0.412114 1.945639
vt 0.4884229 1.9524
vt 0.4884229 1.945639
vt 2.120503 -0.7302712
vt 2.124578 -0.7302712
vt 2.124577 -0.7877511
vt 2.120503 -0.7877511
vt 2.124578 -0.3015686
vt 2.503906 -0.7877511
vt 2.503906 -0.7302712
vt 2.503906 -0.3015686
vt 1.704575 -0.05836552
vt 1.704575 0.004652441
vt 1.704575 0.4451902
vt 2.144363 0.9592438
vt 2.068825 0.9594157
vt 2.577906 0.9582658
vt 1.519551 0.4451888
vt 2.129788 -0.3087143
vt 2.129787 -0.7302712
vt 2.129787 -0.7877511
vt 2.496011 -0.3087143
vt 2.496011 -0.7302712
vt 2.496011 -0.7877511
vt 0.1910565 0.5876234
vt 0.2665946 0.07570598
vt 0.1910565 0.07570598
vt 0.2665946 0.5876234
vt 0.1910565 0.9121739
vt 0.7001375 0.07570598
vt 0.2665946 0.9121739
vt 0.1910565 0.9588176
vt 0.2665946 0.9588176
vt 0.7001375 0.5876234
vt 0.8575907 0.07570598
vt 0.8575907 0.5876234
vt 0.7001375 0.9121739
vt 0.7001375 0.958819
vt 0.8575907 0.9121739
vt 0.8575907 0.958819
vt 0.5752432 -0.8176905
vt 0.6011734 -0.7522644
vt 0.6011664 -0.817693
vt 0.5752524 -0.7522619
vt 0.6012227 -0.3194451
vt 0.5753016 -0.3194426
vt 0.5339492 -0.8174784
vt 0.5603479 -0.7522411
vt 0.559873 -0.8176694
vt 0.5344297 -0.7520527
vt 0.5635241 -0.3194352
vt 0.5376003 -0.3192443
vt -0.6257533 0.8550022
vt -0.5646447 0.5037916
vt -0.6257533 0.5037916
vt -0.5646447 0.8550022
vt -0.6257533 1.21349
vt -0.1479988 0.5037916
vt -0.5646447 1.21349
vt -0.1479988 0.8550022
vt 0.001664042 0.5037916
vt -0.1479988 1.21349
vt 0.001664042 0.8550022
vt 0.001664042 1.21349
vt -0.5646447 0.01177806
vt -0.6257533 0.01177806
vt -0.1479988 0.01177806
vt 0.001664042 0.01177806
vt -0.6257533 -0.4055795
vt -0.5646447 -0.74365
vt -0.6257533 -0.74365
vt -0.5646447 -0.4055795
vt -0.1479988 -0.74365
vt -0.1479988 -0.4055795
vt 0.001664042 -0.7427855
vt 0.001664042 -0.4055795
vt -0.6257533 1.718929
vt -0.5646447 1.718929
vt -0.1479988 1.718929
vt 0.001664042 1.718696
vt 0.6345713 -0.4181511
vt 0.6345713 -0.8811051
vt 0.6077238 -0.8811051
vt 0.6077238 -0.4181511
vt -0.6257533 -0.3987241
vt -0.5646447 -0.3987241
vt -0.1286767 -0.3987241
vt -0.5646447 0.004435062
vt -0.6257533 0.004435062
vt -0.1286767 0.004435062
vt 0.5272177 -0.8811051
vt 0.5182585 -0.8890988
vt 0.5182557 -0.3358143
vt 0.5272177 -0.3358143
vt 0.5182557 -0.2540327
vt 0.5272177 -0.2540327
vt 0.9200846 -0.3372562
vt 0.9111457 -0.2554749
vt 0.9200846 -0.2554749
vt 0.9111457 -0.3372562
vt 0.9200846 -0.8890988
vt 0.9111457 -0.8811051

vn 4.18228E-06 0 1
vn 0 0 -1
vn 0 -1 0
vn 0.9999976 1.922957E-09 0.002206506
vn 0.853761 4.668895E-07 0.5206652
vn 1 0 0
vn 0.8537589 0 -0.5206686
vn 0.8439284 -0.5364559 0
vn 0.004164697 0 0.9999914
vn -0.001377102 0 0.999999
vn -0.004148081 0 0.9999914
vn -1 0 0
vn 0.00176578 -0.0006731647 0.9999982
vn 0.003531567 -0.001346332 0.9999928
vn 0.007063083 -0.002692644 0.9999714
vn -0.01246057 0 0.9999224
vn -0.08413412 0 0.9964544
vn -0.7198645 0 0.6941145
vn -0.08413411 0 -0.9964544
vn -0.7198649 0 -0.6941141
vn 0.1911815 2.214725E-07 -0.9815547
vn 0.3284357 1.095319E-06 -0.9445263
vn 0.4590449 2.904908E-06 -0.8884131
vn 0.09358545 -0.9956101 -0.001503473
vn 0.3246813 -0.9458231 -0.000773532
vn 0.04778796 -0.998853 -0.003002978
vn 0.3461832 -0.9381669 -1.382362E-06
vn 0.5374079 -0.8433225 -1.906814E-06
vn -0.07364276 -0.9972847 -1.084055E-06
vn -0.7138129 -0.7003364 -8.672408E-07
vn 0.08080888 3.930048E-07 0.9967296
vn 0.2752989 -4.2141E-08 0.9613587
vn 0.4590332 0 0.8884192
vn 0.9562497 0 0.2925519
vn 0.6231267 0 0.7821209
vn -0.9562495 0 0.2925522
vn -0.6231257 0 0.7821217
vn -0.003799694 -0.9533177 0.3019453
vn -0.01033466 -0.6176724 0.7863676
vn -0.009914842 -0.6230901 0.7820873
vn -0.003749534 -0.953652 0.3008885
vn 0.4578156 7.981174E-07 0.8890472
vn 0.4578084 0 -0.8890509
vn 0.4244301 -0.9054607 0
vn 0.07150517 0 0.9974402
vn -0.01382022 -0.05578271 0.9983473
vn -0.01324252 -0.06852022 0.9975619
vn -0.07150295 0 0.9974404
vn -0.9988571 0 -0.0477964
vn -0.998857 0 0.04779743
vn -0.9985068 -0.05462889 -5.415324E-08
vn -0.00869686 0 0.9999622
vn -0.001003687 0 -0.9999995
vn 0.003484545 0 -0.9999939
vn 0.005728685 0 -0.9999836
vn 0.0124608 0 -0.9999224
vn 0.9634033 0 -0.2680562
vn 0.6330484 0 -0.7741122
vn -0.9634073 0 -0.2680417
vn -0.6330546 0 -0.7741072
vn 0.00349164 -0.9609271 -0.2767798
vn 0.01026241 -0.6280316 -0.7781202
vn 0.009854194 -0.6333351 -0.773815
vn 0.003437988 -0.9611852 -0.2758829
vn 0.07148705 0 -0.9974415
vn -0.07148804 0 -0.9974415
vn 0.01382033 -0.05576582 -0.9983482
vn 0.01327346 -0.06853292 -0.9975606

usemtl livingroom_wall3
f 4/4/1 1/1/1 3/3/1 2/2/1
f 6/6/1 4/4/1 2/2/1 5/5/1
f 10/10/2 7/7/2 9/9/2 8/8/2
f 12/12/2 10/10/2 8/8/2 11/11/2
f 5/5/3 12/12/3 11/11/3 6/6/3
f 16/16/4 13/13/4 15/15/4 14/14/4
f 18/18/5 2/2/6 3/3/6 17/17/5
f 20/20/7 7/7/6 10/10/6 19/19/7
f 19/19/7 10/10/6 12/12/6 21/21/7
f 21/21/8 12/12/6 5/5/6 22/22/8
f 22/22/5 5/5/6 2/2/6 18/18/5

usemtl bathroom_wall3

usemtl bedroom_wall4
f 26/26/9 23/23/9 25/25/9 24/24/9
f 28/28/9 26/26/9 24/24/9 27/27/10
f 30/30/9 28/28/9 27/27/10 29/29/11
f 34/34/6 31/31/6 33/33/6 32/32/6
f 36/36/6 34/34/6 32/32/6 35/35/6
f 38/38/6 36/36/6 35/35/6 37/37/6
f 42/42/12 39/39/12 41/41/12 40/40/12
f 44/44/12 42/42/12 40/40/12 43/43/12
f 46/46/12 44/44/12 43/43/12 45/45/12
f 48/48/6 47/47/6 23/23/6 26/26/6
f 50/50/6 49/49/6 47/47/6 48/48/6
f 51/51/6 48/48/6 26/26/6 28/28/6
f 53/53/6 50/50/6 48/48/6 51/51/6
f 52/52/6 51/51/6 28/28/6 30/30/6
f 54/54/6 53/53/6 51/51/6 52/52/6
f 35/56/6 53/53/6 54/54/6 37/55/6
f 40/40/1 41/41/1 56/58/1 55/57/1
f 43/43/13 40/40/1 55/57/1 57/59/1
f 45/45/15 43/43/13 57/59/1 58/60/14
f 62/64/1 59/61/1 61/63/1 60/62/1
f 64/66/1 62/64/1 60/62/1 63/65/1
f 46/46/16 29/68/11 27/67/10 44/44/16
f 68/72/2 65/69/2 67/71/2 66/70/2
f 70/74/2 68/72/2 66/70/2 69/73/2
f 72/76/2 70/74/2 69/73/2 71/75/2
f 63/65/3 72/76/3 71/75/3 64/66/3
f 56/80/17 74/79/18 73/78/18 55/77/17
f 57/82/17 55/77/17 73/78/18 75/81/18
f 79/86/19 78/85/20 77/84/20 76/83/19
f 81/88/19 80/87/20 78/85/20 79/86/19
f 83/90/19 82/89/20 80/87/20 81/88/19
f 87/94/22 84/91/21 86/93/21 85/92/22
f 68/72/23 87/94/22 85/92/22 65/69/23
f 89/96/22 88/95/21 84/91/21 87/94/22
f 70/74/23 89/96/22 87/94/22 68/72/23
f 91/98/22 90/97/21 88/95/21 89/96/22
f 72/76/23 91/98/22 89/96/22 70/74/23
f 93/100/27 92/99/24 90/97/26 91/98/25
f 63/65/28 93/100/27 91/98/25 72/76/28
f 57/82/29 75/81/30 82/89/30 83/90/29
f 95/102/32 94/101/31 92/99/31 93/100/32
f 97/104/32 96/103/31 94/101/31 95/102/32
f 60/62/33 95/102/32 93/100/32 63/65/33
f 61/63/33 97/104/32 95/102/32 60/62/33
f 25/108/34 99/107/35 98/106/35 24/105/34
f 27/67/34 24/105/34 98/106/35 100/109/35
f 42/42/36 102/111/37 101/110/37 39/39/36
f 44/44/36 103/112/37 102/111/37 42/42/36
f 27/67/41 100/109/40 103/112/39 44/44/38
f 50/50/42 18/114/5 17/113/5 49/49/42
f 53/53/42 22/115/5 18/114/5 50/50/42
f 33/33/43 20/117/7 19/116/7 32/32/43
f 35/35/43 32/32/43 19/116/7 21/118/7
f 35/56/44 21/119/8 22/115/8 53/53/44
f 98/106/35 105/121/45 104/120/45 100/109/35
f 99/107/35 106/122/45 105/121/45 98/106/35
f 100/109/40 104/120/47 107/123/46 103/112/39
f 108/124/48 102/111/37 103/112/37 107/123/48
f 102/111/37 108/124/48 109/125/48 101/110/37
f 78/85/20 66/70/49 67/71/49 77/84/20
f 80/87/20 69/73/49 66/70/49 78/85/20
f 82/89/20 71/75/49 69/73/49 80/87/20
f 62/64/50 73/78/18 74/79/18 59/61/50
f 73/78/18 62/64/50 64/66/50 75/81/18
f 75/81/30 64/66/51 71/75/51 82/89/30

usemtl pattern_wall
f 111/129/2 110/126/2 31/128/2 34/127/2
f 113/132/2 112/130/2 110/126/2 111/129/2
f 116/135/2 111/129/2 34/127/2 36/131/2
f 115/134/2 114/133/2 112/130/2 113/132/2
f 118/138/2 113/132/2 111/129/2 116/135/2
f 117/137/2 116/135/2 36/131/2 38/136/2
f 119/139/2 115/134/2 113/132/2 118/138/2
f 120/140/2 118/138/2 116/135/2 117/137/2
f 121/141/2 119/139/2 118/138/2 120/140/2

usemtl studyroom_wall3
f 105/145/6 106/142/6 123/144/6 122/143/6
f 104/147/6 105/145/6 122/143/6 124/146/6
f 126/151/12 125/148/12 109/150/12 108/149/12
f 127/153/12 126/151/12 108/149/12 107/152/12
f 131/157/11 128/154/11 130/156/1 129/155/1
f 134/160/52 132/158/52 128/154/11 131/157/11
f 135/161/11 131/157/11 129/155/1 133/159/1
f 137/163/52 134/160/52 131/157/11 135/161/11
f 138/164/11 135/161/11 133/159/1 136/162/1
f 139/165/52 137/163/52 135/161/11 138/164/11
f 129/155/12 130/156/12 141/167/12 140/166/12
f 133/159/12 129/155/12 140/166/12 142/168/12
f 136/162/12 133/159/12 142/168/12 143/169/12
f 147/173/53 144/170/53 146/172/53 145/171/53
f 149/175/54 147/173/53 145/171/53 148/174/53
f 151/177/55 149/175/54 148/174/53 150/176/53
f 142/168/56 149/175/54 151/177/55 143/169/56
f 145/179/6 146/178/6 132/158/6 134/160/6
f 148/180/6 145/179/6 134/160/6 137/163/6
f 150/181/6 148/180/6 137/163/6 139/165/6
f 107/185/3 104/184/3 124/183/3 127/182/3
f 147/173/57 153/187/58 152/186/58 144/170/57
f 149/175/57 154/188/58 153/187/58 147/173/57
f 141/167/59 156/190/60 155/189/60 140/166/59
f 142/168/59 140/166/59 155/189/60 157/191/60
f 142/168/64 157/191/63 154/188/62 149/175/61
f 122/195/65 153/194/58 154/193/58 124/192/65
f 153/194/58 122/195/65 123/197/65 152/196/58
f 126/201/66 155/198/60 156/200/60 125/199/66
f 155/198/60 126/201/66 127/203/66 157/202/60
f 157/202/63 127/203/68 124/192/67 154/193/62

