# ProBuilder 5.0.7
# https://unity3d.com/unity/features/worldbuilding/probuilder
# 6/29/2023 5:12:42 AM

mtllib ./outer_shell.mtl
o outer_shell

g outer_shell
v -54.14953 -39.50338 -193.5248
v 51.57195 -39.45195 -193.5141
v 23.36646 -39.45195 -193.5141
v 37.46124 53.7453 -193.5141
v 169.2651 53.7453 -193.5141
v 169.265 53.74533 -23.31529
v -54.14936 53.74531 -24.15794
v -54.14953 53.74532 -193.5248
v -54.14943 53.74532 111.8073
v 169.265 53.74533 111.8073
v 169.2651 -39.45195 -193.5141
v 169.2651 -39.46217 -23.17381
v 169.265 -39.5034 111.8073
v -54.14943 -39.50339 111.8073
v 23.36646 31.00465 -193.5141
v 51.57196 31.00465 -193.5141
v -54.14923 29.5403 -22.10227
v -54.14923 -28.85847 -22.10227
v -54.14924 29.5403 36.19019
v -54.14925 -28.85847 36.19021

vt 0.4759318 0.05426866
vt 0.4738982 0.4143671
vt 0.4741131 0.3762813
vt 0.982999 0.3063276
vt 0.983568 0.09827071
vt 0.8438972 0.09788883
vt 0.8435677 0.7046533
vt 0.9819254 0.7050319
vt 0.6289421 0.7040665
vt 0.6306015 0.0973053
vt 0.4729995 0.5732824
vt 0.3533439 0.5726063
vt 0.1710874 0.5715841
vt 0.1739986 0.05257544
vt 0.6018386 0.05500382
vt 0.569249 0.37683
vt 0.5998437 0.3960383
vt 0.5690308 0.4149132
vt 0.5988362 0.573999
vt 0.5981573 0.6934697
vt 0.4723044 0.6929445
vt 0.04809044 0.05186933
vt 0.04517929 0.5708779
vt -23.36646 31.00465
vt -51.57195 -39.45195
vt -51.57196 31.00465
vt -23.36646 -39.45195
vt 0.2473631 0.8542323
vt 0.08653215 0.8964477
vt 0.2433871 0.8975236
vt 0.0876769 0.7295723
vt 0.486707 0.899193
vt 0.24808 0.7497234
vt 0.3516817 0.854948
vt 0.4878517 0.7323173
vt 0.3523986 0.750439
vt -22.10225 29.54029
vt -22.10225 -28.85848
vt 36.19024 -28.85848
vt 36.19022 29.54029

vn 0.0003398586 -0.877908 -0.4788293
vn 0.0001927978 -0.6307181 -0.776012
vn 0 0.2041659 -0.9789363
vn 3.694049E-08 1 -9.219506E-08
vn 0 -1 -5.999505E-05
vn 0.0003303205 -0.9999999 -0.000266761
vn 6.919172E-05 0 -1
vn 1 5.729771E-07 3.13819E-07
vn -2.048944E-07 0 1
vn -1 -3.797126E-06 8.253744E-07

usemtl exterior_wall
f 3/3/3 2/2/2 1/1/1
f 6/6/4 5/5/4 4/4/4
f 4/17/7 15/16/7 8/15/7
f 4/17/7 16/18/7 15/16/7
f 4/17/7 5/19/7 16/18/7
f 7/30/10 8/29/10 17/28/10
f 7/7/4 6/6/4 4/4/4
f 4/4/4 8/8/4 7/7/4
f 6/6/4 7/7/4 9/9/4
f 9/9/4 10/10/4 6/6/4
f 1/1/1 2/2/2 11/11/5
f 11/11/5 12/12/6 1/1/1
f 1/1/1 12/12/6 13/13/6
f 13/13/6 14/14/5 1/1/1
f 3/3/7 1/1/7 8/15/7
f 8/15/7 15/16/7 3/3/7
f 16/18/7 5/19/7 11/11/7
f 11/11/7 2/2/7 16/18/7
f 6/20/8 12/21/8 11/11/8
f 11/11/8 5/19/8 6/20/8
f 9/22/9 14/14/9 13/13/9
f 13/13/9 10/23/9 9/22/9
f 15/24/7 16/26/7 2/25/7
f 2/25/7 3/27/7 15/24/7
f 17/28/10 8/29/10 1/31/10
f 1/31/10 18/33/10 17/28/10
f 9/32/10 7/30/10 17/28/10
f 17/28/10 19/34/10 9/32/10
f 18/33/10 1/31/10 14/35/10
f 14/35/10 20/36/10 18/33/10
f 9/32/10 19/34/10 20/36/10
f 20/36/10 14/35/10 9/32/10
f 18/38/10 20/39/10 19/40/10
f 19/40/10 17/37/10 18/38/10

